<?xml version="1.0" encoding="UTF-8"?> <svg xmlns="http://www.w3.org/2000/svg" xmlns:xlink="http://www.w3.org/1999/xlink" id="Layer_1" data-name="Layer 1" viewBox="0 0 200 60"><defs><style>.cls-1{fill:url(#linear-gradient);}.cls-2{fill:url(#linear-gradient-2);}.cls-3{fill:url(#linear-gradient-3);}.cls-4{fill:url(#linear-gradient-4);}.cls-5{fill:url(#linear-gradient-5);}.cls-6{fill:url(#linear-gradient-6);}.cls-7{fill:url(#linear-gradient-7);}.cls-8{fill:url(#linear-gradient-8);}</style><linearGradient id="linear-gradient" x1="149" y1="16.18" x2="172.72" y2="42.72" gradientUnits="userSpaceOnUse"><stop offset="0" stop-color="#e40303"></stop><stop offset="0.18" stop-color="#ff8c00"></stop><stop offset="0.4" stop-color="#ffed00"></stop><stop offset="0.62" stop-color="#008026"></stop><stop offset="0.83" stop-color="#004dff"></stop><stop offset="1" stop-color="#760787"></stop></linearGradient><linearGradient id="linear-gradient-2" x1="8.58" y1="20.01" x2="34.24" y2="46.75" xlink:href="#linear-gradient"></linearGradient><linearGradient id="linear-gradient-3" x1="73.87" y1="25.07" x2="97.84" y2="46.09" xlink:href="#linear-gradient"></linearGradient><linearGradient id="linear-gradient-4" x1="125.77" y1="24.99" x2="104.75" y2="46.79" xlink:href="#linear-gradient"></linearGradient><linearGradient id="linear-gradient-5" x1="58.22" y1="18.51" x2="48.99" y2="44.92" xlink:href="#linear-gradient"></linearGradient><linearGradient id="linear-gradient-6" x1="64.31" y1="20.64" x2="55.08" y2="47.05" xlink:href="#linear-gradient"></linearGradient><linearGradient id="linear-gradient-7" x1="187.78" y1="13.88" x2="194.76" y2="13.88" xlink:href="#linear-gradient"></linearGradient><linearGradient id="linear-gradient-8" x1="190.35" y1="13.85" x2="192.9" y2="13.85" xlink:href="#linear-gradient"></linearGradient></defs><path class="cls-1" d="M165,47V23.23H151.74V18.7h32.69v4.53H171.1V47Zm-21.66,0V18.7h6.09V47Z"></path><path class="cls-2" d="M12.14,47c-2.73,0-4.58-.45-5.51-1.36S5.24,43,5.24,40.45v-.53l5.29-1.09v3.34H31.62V34.93H13.26c-2.71,0-4.55-.46-5.46-1.36s-1.39-2.63-1.39-5.16v-3.2c0-2.53.47-4.26,1.39-5.16s2.75-1.36,5.46-1.36H29.68c2.63,0,4.45.44,5.41,1.31s1.44,2.45,1.44,4.72v.34l-5.29,1.25v-3.2H11.65V30H30c2.73,0,4.58.45,5.51,1.35s1.39,2.64,1.39,5.16v4c0,2.53-.46,4.26-1.39,5.16S32.74,47,30,47Z"></path><path class="cls-3" d="M77.12,47c-2.32,0-3.89-.36-4.67-1.09s-1.17-2.13-1.17-4.19V29.18c0-2.05.39-3.45,1.17-4.17s2.35-1.09,4.67-1.09H94.28c2.29,0,3.86.36,4.65,1.07s1.18,2,1.18,3.91v.36l-5,.85V27.62H76.41V43.08H95.09V37.4H85.67V33.82h14.44v7.87c0,2.06-.39,3.48-1.17,4.19S96.59,47,94.28,47Z"></path><polygon class="cls-4" points="103.15 46.98 103.15 23.92 127.93 23.92 127.93 27.46 108.34 27.46 108.34 33.28 119.75 33.28 119.75 36.71 108.34 36.71 108.34 43.18 128.23 43.18 128.23 46.98 103.15 46.98"></polygon><polygon class="cls-5" points="46.37 30.9 47.46 28.98 47.44 28.97 49.92 24.63 50.12 24.3 53.98 17.49 59.05 26.23 59.19 26.48 59.72 27.4 59.73 27.39 61.54 30.51 58.15 33.35 54.02 26.25 49.96 33.41 46.37 30.9"></polygon><polygon class="cls-6" points="45.54 32.35 49.1 34.91 45.16 41.86 54.14 38.97 55.51 39.4 63.07 41.83 58.92 34.68 62.3 31.82 72.62 49.61 54.14 43.67 35.74 49.61 45.54 32.35"></polygon><path class="cls-7" d="M191.27,17.38a3.5,3.5,0,1,1,3.49-3.5A3.5,3.5,0,0,1,191.27,17.38Zm0-6.51a3,3,0,1,0,3,3A3,3,0,0,0,191.27,10.87Z"></path><path class="cls-8" d="M190.35,12a5.42,5.42,0,0,1,1-.08,1.59,1.59,0,0,1,1.13.32,1,1,0,0,1,.31.74,1,1,0,0,1-.74,1h0a1,1,0,0,1,.58.79,5.7,5.7,0,0,0,.3,1.08h-.53a5.47,5.47,0,0,1-.26-.94c-.11-.54-.32-.74-.78-.76h-.48v1.7h-.5Zm.5,1.78h.52c.54,0,.88-.3.88-.74s-.36-.73-.9-.73a2.51,2.51,0,0,0-.5,0Z"></path></svg> 